<svg width="102" height="102" viewBox="0 0 102 102" fill="none" xmlns="http://www.w3.org/2000/svg">
<path d="M83.9088 32.34C77.1888 20.57 64.2988 13.38 50.3888 13.47V6L35.2688 19.78L50.3888 33.56V25.45C50.3888 25.45 50.3888 25.45 50.3888 25.46C51.3088 25.49 65.3388 26.21 72.4388 38.34C77.6788 47.29 76.9988 58.77 70.6788 67.45C73.5688 70.34 76.4488 73.22 79.3388 76.11C89.9488 63.61 91.7188 46.01 83.9088 32.34Z" fill="black"/>
<path d="M17.9788 69.94C24.7988 81.66 37.7388 88.73 51.6488 88.53L51.7088 96L66.7188 82.1L51.4888 68.45L51.5588 76.56C51.5588 76.56 51.5588 76.56 51.5588 76.55C50.6388 76.53 36.6088 75.92 29.3988 63.85C24.0788 54.94 24.6688 43.46 30.9188 34.73C28.0088 31.87 25.0988 29 22.1888 26.14C11.6788 38.72 10.0588 56.33 17.9788 69.94Z" fill="black"/>
</svg>
